<svg xmlns="http://www.w3.org/2000/svg" width="654" height="616" fill="none"><path fill="#828282" d="m41.807 71-7.955-29.09h3.58l6.08 23.692h.283L49.99 41.91h3.977l6.193 23.693h.284l6.08-23.693h3.58L62.147 71H58.51l-6.42-23.182h-.227L45.444 71h-3.637Zm39.062.454c-1.97 0-3.698-.468-5.184-1.406-1.478-.937-2.633-2.249-3.466-3.934-.824-1.686-1.236-3.656-1.236-5.91 0-2.272.412-4.256 1.236-5.951.833-1.695 1.988-3.011 3.466-3.949 1.486-.938 3.215-1.406 5.184-1.406 1.97 0 3.694.468 5.17 1.406 1.487.938 2.643 2.254 3.467 3.949.833 1.695 1.25 3.679 1.25 5.952 0 2.253-.417 4.223-1.25 5.909-.824 1.685-1.98 2.997-3.466 3.934-1.478.938-3.201 1.406-5.17 1.406Zm0-3.01c1.496 0 2.728-.384 3.694-1.151.965-.767 1.68-1.776 2.144-3.026.464-1.25.696-2.604.696-4.062 0-1.459-.232-2.818-.696-4.077-.464-1.26-1.179-2.278-2.144-3.054-.966-.777-2.198-1.165-3.694-1.165s-2.727.388-3.693 1.165c-.966.776-1.68 1.794-2.145 3.054-.464 1.26-.696 2.618-.696 4.077 0 1.458.232 2.812.696 4.062.464 1.25 1.18 2.259 2.145 3.026.966.767 2.197 1.15 3.693 1.15ZM95.873 71V49.182h3.239v3.295h.227c.398-1.08 1.117-1.955 2.159-2.628 1.042-.672 2.216-1.008 3.523-1.008.246 0 .554.005.923.014.369.01.649.024.838.043v3.409a9.989 9.989 0 0 0-.781-.128 7.687 7.687 0 0 0-1.264-.1c-1.061 0-2.008.223-2.841.668a5.033 5.033 0 0 0-1.96 1.818c-.474.767-.71 1.643-.71 2.628V71h-3.353Zm18.008-7.955-.057-4.147h.682l9.545-9.716h4.148l-10.171 10.284h-.284l-3.863 3.58ZM110.756 71V41.91h3.352V71h-3.352Zm13.863 0-8.522-10.795 2.386-2.33L128.881 71h-4.262Zm17.61-21.818v2.84h-11.761v-2.84h11.761ZM133.991 71V46.17c0-1.25.293-2.291.88-3.125a5.465 5.465 0 0 1 2.287-1.875 7.23 7.23 0 0 1 2.969-.625c.824 0 1.496.067 2.017.2.521.132.909.255 1.165.369l-.966 2.897c-.17-.056-.407-.128-.71-.213-.294-.085-.682-.128-1.165-.128-1.108 0-1.908.28-2.401.838-.482.56-.724 1.378-.724 2.458V71h-3.352Zm16.289-29.09V71h-3.352V41.91h3.352Zm15.003 29.544c-1.969 0-3.698-.468-5.184-1.406-1.478-.937-2.633-2.249-3.466-3.934-.824-1.686-1.236-3.656-1.236-5.91 0-2.272.412-4.256 1.236-5.951.833-1.695 1.988-3.011 3.466-3.949 1.486-.938 3.215-1.406 5.184-1.406 1.97 0 3.694.468 5.171 1.406 1.487.938 2.642 2.254 3.466 3.949.833 1.695 1.25 3.679 1.25 5.952 0 2.253-.417 4.223-1.25 5.909-.824 1.685-1.979 2.997-3.466 3.934-1.477.938-3.201 1.406-5.171 1.406Zm0-3.01c1.497 0 2.728-.384 3.694-1.151.965-.767 1.68-1.776 2.144-3.026.464-1.25.696-2.604.696-4.062 0-1.459-.232-2.818-.696-4.077-.464-1.26-1.179-2.278-2.144-3.054-.966-.777-2.197-1.165-3.694-1.165-1.496 0-2.727.388-3.693 1.165-.966.776-1.681 1.794-2.145 3.054-.464 1.26-.696 2.618-.696 4.077 0 1.458.232 2.812.696 4.062.464 1.25 1.179 2.259 2.145 3.026.966.767 2.197 1.15 3.693 1.15ZM184.488 71l-6.648-21.818h3.523l4.716 16.704h.227l4.659-16.704h3.58l4.602 16.647h.227l4.716-16.647h3.523L200.965 71h-3.295l-4.773-16.761h-.341L187.783 71h-3.295Zm43.011-16.932-3.011.852a5.592 5.592 0 0 0-.838-1.463c-.36-.483-.852-.88-1.477-1.193-.625-.312-1.426-.469-2.401-.469-1.335 0-2.448.308-3.338.924-.881.606-1.321 1.378-1.321 2.315 0 .833.303 1.492.909 1.974.606.483 1.553.886 2.841 1.208l3.239.795c1.95.474 3.404 1.198 4.36 2.174.957.966 1.435 2.21 1.435 3.736 0 1.25-.36 2.367-1.08 3.352-.71.985-1.704 1.761-2.982 2.33-1.279.568-2.766.852-4.461.852-2.225 0-4.067-.483-5.525-1.45-1.459-.965-2.382-2.376-2.77-4.232l3.182-.796c.303 1.174.876 2.055 1.718 2.642.853.587 1.965.881 3.338.881 1.563 0 2.804-.331 3.722-.994.928-.673 1.392-1.478 1.392-2.415 0-.758-.265-1.392-.795-1.903-.531-.521-1.345-.91-2.444-1.165l-3.636-.853c-1.998-.473-3.466-1.207-4.403-2.201-.928-1.004-1.392-2.259-1.392-3.764 0-1.231.345-2.32 1.037-3.267.7-.948 1.652-1.69 2.855-2.23 1.212-.54 2.585-.81 4.119-.81 2.159 0 3.854.473 5.085 1.42 1.241.947 2.121 2.197 2.642 3.75ZM437 61.66c-.856 0-1.585-.234-2.188-.7-.602-.47-1.062-1.15-1.38-2.04-.318-.894-.477-1.973-.477-3.238 0-1.258.159-2.332.477-3.222.322-.894.784-1.575 1.386-2.045.606-.474 1.334-.71 2.182-.71.848 0 1.574.236 2.176.71.606.47 1.068 1.151 1.386 2.045.322.89.483 1.964.483 3.222 0 1.265-.159 2.344-.477 3.238-.318.89-.778 1.57-1.38 2.04-.603.466-1.332.7-2.188.7Zm0-1.25c.848 0 1.508-.41 1.977-1.228.47-.818.705-1.985.705-3.5 0-1.008-.108-1.866-.324-2.574-.212-.708-.519-1.248-.92-1.62a2.033 2.033 0 0 0-1.438-.556c-.841 0-1.498.415-1.972 1.244-.473.826-.71 1.994-.71 3.506 0 1.007.106 1.863.318 2.568.212.705.517 1.24.915 1.608.402.367.885.551 1.449.551Z"/><rect width="15" height="19" x="466" y="46.5" fill="#EBD8FC" rx="7.5"/><rect width="15" height="19" x="485" y="46.5" fill="#D4B1FA" rx="7.5"/><rect width="15" height="19" x="504" y="46.5" fill="#BB8BF8" rx="7.5"/><rect width="15" height="19" x="523" y="46.5" fill="#492AB0" rx="7.5"/><rect width="15" height="19" x="542" y="46.5" fill="#321E8D" rx="7.5"/><path fill="#828282" d="M586.381 49.864V61.5h-1.409V51.34h-.068l-2.841 1.887v-1.431l2.909-1.932h1.409Zm4.682 10.045-.091.614a12.43 12.43 0 0 1-.295 1.386c-.129.492-.263.956-.404 1.392-.14.436-.255.782-.346 1.04h-1.023l.193-.96c.08-.398.159-.843.239-1.336.083-.488.151-.988.204-1.5l.069-.636h1.454Zm5.851 1.75c-.856 0-1.585-.233-2.187-.699-.603-.47-1.063-1.15-1.381-2.04-.318-.894-.477-1.973-.477-3.238 0-1.258.159-2.332.477-3.222.322-.894.784-1.575 1.386-2.045.606-.474 1.334-.71 2.182-.71.849 0 1.574.236 2.176.71.606.47 1.068 1.151 1.387 2.045.322.89.483 1.964.483 3.222 0 1.265-.16 2.344-.478 3.238-.318.89-.778 1.57-1.38 2.04-.603.466-1.332.7-2.188.7Zm0-1.25c.849 0 1.508-.409 1.977-1.227.47-.818.705-1.985.705-3.5 0-1.008-.108-1.866-.324-2.574-.212-.708-.519-1.248-.92-1.62a2.033 2.033 0 0 0-1.438-.556c-.841 0-1.498.415-1.972 1.244-.473.826-.71 1.994-.71 3.506 0 1.007.106 1.863.318 2.568.213.705.517 1.24.915 1.608.402.367.885.551 1.449.551Zm10 1.25c-.856 0-1.585-.233-2.187-.699-.603-.47-1.063-1.15-1.381-2.04-.318-.894-.477-1.973-.477-3.238 0-1.258.159-2.332.477-3.222.322-.894.784-1.575 1.386-2.045.606-.474 1.334-.71 2.182-.71.849 0 1.574.236 2.176.71.606.47 1.068 1.151 1.387 2.045.322.89.483 1.964.483 3.222 0 1.265-.16 2.344-.478 3.238-.318.89-.778 1.57-1.38 2.04-.603.466-1.332.7-2.188.7Zm0-1.25c.849 0 1.508-.409 1.977-1.227.47-.818.705-1.985.705-3.5 0-1.008-.108-1.866-.324-2.574-.212-.708-.519-1.248-.92-1.62a2.033 2.033 0 0 0-1.438-.556c-.841 0-1.498.415-1.972 1.244-.473.826-.71 1.994-.71 3.506 0 1.007.106 1.863.318 2.568.213.705.517 1.24.915 1.608.402.367.885.551 1.449.551Zm10 1.25c-.856 0-1.585-.233-2.187-.699-.603-.47-1.063-1.15-1.381-2.04-.318-.894-.477-1.973-.477-3.238 0-1.258.159-2.332.477-3.222.322-.894.784-1.575 1.386-2.045.606-.474 1.334-.71 2.182-.71.849 0 1.574.236 2.176.71.606.47 1.068 1.151 1.387 2.045.322.89.483 1.964.483 3.222 0 1.265-.16 2.344-.478 3.238-.318.89-.778 1.57-1.38 2.04-.603.466-1.332.7-2.188.7Zm0-1.25c.849 0 1.508-.409 1.977-1.227.47-.818.705-1.985.705-3.5 0-1.008-.108-1.866-.324-2.574-.212-.708-.519-1.248-.92-1.62a2.033 2.033 0 0 0-1.438-.556c-.841 0-1.498.415-1.972 1.244-.473.826-.71 1.994-.71 3.506 0 1.007.106 1.863.318 2.568.213.705.517 1.24.915 1.608.402.367.885.551 1.449.551ZM33.41 132.364h1.68l3.955 9.659h.137l3.954-9.659h1.682V144H43.5v-8.841h-.114L39.75 144h-1.273l-3.636-8.841h-.114V144H33.41v-11.636Zm17.597 11.818c-.788 0-1.48-.188-2.074-.563-.59-.375-1.053-.899-1.386-1.574-.33-.674-.494-1.462-.494-2.363 0-.909.164-1.703.494-2.381.333-.678.795-1.204 1.386-1.579.595-.375 1.286-.563 2.074-.563.788 0 1.477.188 2.068.563.595.375 1.057.901 1.387 1.579.333.678.5 1.472.5 2.381 0 .901-.167 1.689-.5 2.363a3.764 3.764 0 0 1-1.387 1.574c-.59.375-1.28.563-2.068.563Zm0-1.205c.599 0 1.091-.153 1.477-.46.387-.307.673-.71.858-1.21.186-.5.279-1.042.279-1.625a4.68 4.68 0 0 0-.279-1.631 2.742 2.742 0 0 0-.858-1.221c-.386-.311-.878-.466-1.477-.466-.598 0-1.09.155-1.477.466-.386.31-.672.717-.858 1.221a4.68 4.68 0 0 0-.278 1.631c0 .583.092 1.125.278 1.625.186.5.472.903.858 1.21.386.307.879.46 1.477.46Zm7.342-4.227V144h-1.34v-8.727h1.295v1.363h.114c.204-.443.515-.799.931-1.068.417-.273.955-.409 1.614-.409.591 0 1.108.121 1.551.364.443.238.788.602 1.034 1.091.246.484.37 1.098.37 1.841V144h-1.341v-5.455c0-.685-.178-1.219-.534-1.602-.356-.386-.845-.579-1.466-.579-.428 0-.81.092-1.148.278a1.99 1.99 0 0 0-.79.813c-.193.356-.29.787-.29 1.295Zm-25.576 54.864v-1.25H41.5v1.25h-3.66V204h-1.408v-10.386h-3.66Zm15.032 6.818v-5.159h1.341V204h-1.34v-1.477h-.091c-.205.443-.523.82-.955 1.13-.432.307-.977.461-1.636.461-.546 0-1.03-.12-1.455-.358-.424-.243-.758-.606-1-1.091-.242-.489-.364-1.104-.364-1.847v-5.545h1.341v5.454c0 .637.178 1.144.534 1.523.36.379.819.568 1.375.568.334 0 .673-.085 1.017-.256.349-.17.64-.431.875-.784.24-.352.358-.801.358-1.346Zm7.456 3.75c-.84 0-1.566-.186-2.176-.557a3.74 3.74 0 0 1-1.403-1.568c-.326-.674-.489-1.459-.489-2.352 0-.894.163-1.682.489-2.364.33-.686.788-1.22 1.375-1.602.59-.387 1.28-.58 2.068-.58.455 0 .903.076 1.347.227.443.152.846.398 1.21.739.363.337.653.784.87 1.341.215.557.323 1.242.323 2.057v.568h-6.727v-1.159h5.363c0-.493-.098-.932-.295-1.318a2.22 2.22 0 0 0-.83-.915c-.356-.224-.776-.335-1.261-.335-.534 0-.996.132-1.386.397a2.625 2.625 0 0 0-.892 1.023 3.006 3.006 0 0 0-.313 1.352v.773c0 .659.114 1.218.341 1.676.231.455.551.801.96 1.04.41.235.885.352 1.426.352.353 0 .67-.049.955-.147a2.05 2.05 0 0 0 .744-.455c.209-.205.37-.458.483-.761l1.296.363c-.137.44-.366.826-.688 1.159a3.35 3.35 0 0 1-1.193.773 4.421 4.421 0 0 1-1.597.273ZM35.523 264l-3.182-11.636h1.432l2.431 9.477h.114l2.477-9.477h1.591l2.478 9.477h.113l2.432-9.477h1.432L43.659 264h-1.454l-2.569-9.273h-.09L36.976 264h-1.454Zm15.738.182c-.84 0-1.566-.186-2.176-.557a3.74 3.74 0 0 1-1.403-1.568c-.326-.674-.489-1.459-.489-2.352 0-.894.163-1.682.489-2.364.33-.686.788-1.22 1.375-1.602.59-.387 1.28-.58 2.068-.58.455 0 .903.076 1.347.227.443.152.846.398 1.21.739.363.337.653.784.87 1.341.215.557.323 1.242.323 2.057v.568h-6.727v-1.159h5.363c0-.493-.098-.932-.295-1.318a2.22 2.22 0 0 0-.83-.915c-.356-.224-.776-.335-1.261-.335-.534 0-.996.132-1.386.397a2.625 2.625 0 0 0-.892 1.023 3.006 3.006 0 0 0-.313 1.352v.773c0 .659.114 1.218.341 1.676.231.455.551.801.96 1.04.41.235.885.352 1.426.352.353 0 .67-.049.955-.147a2.05 2.05 0 0 0 .744-.455c.209-.205.37-.458.483-.761l1.296.363c-.137.44-.366.826-.688 1.159a3.35 3.35 0 0 1-1.193.773 4.421 4.421 0 0 1-1.597.273Zm8.95 0c-.728 0-1.37-.184-1.927-.551-.557-.372-.992-.894-1.307-1.569-.314-.678-.471-1.479-.471-2.403 0-.917.157-1.712.471-2.386.315-.675.752-1.195 1.313-1.563.56-.367 1.208-.551 1.943-.551.568 0 1.017.095 1.347.284.333.186.587.398.76.637.179.234.317.428.416.579h.113v-4.295h1.341V264h-1.295v-1.341h-.16a8.54 8.54 0 0 1-.42.602c-.182.239-.441.453-.778.642-.337.186-.786.279-1.347.279Zm.181-1.205c.538 0 .992-.14 1.364-.42.37-.284.653-.676.846-1.176.194-.504.29-1.086.29-1.745 0-.651-.095-1.221-.284-1.71-.19-.492-.47-.875-.841-1.148-.371-.276-.83-.414-1.375-.414-.568 0-1.042.145-1.42.437-.375.288-.658.68-.847 1.176a4.68 4.68 0 0 0-.278 1.659c0 .622.094 1.186.284 1.694.193.503.477.905.852 1.204.379.296.848.443 1.409.443Zm-27.619 50.637v-1.25H41.5v1.25h-3.66V324h-1.408v-10.386h-3.66Zm12.06 5.136V324h-1.34v-11.636h1.34v4.272h.114c.205-.45.512-.808.92-1.074.414-.268.963-.403 1.649-.403.594 0 1.115.119 1.562.358a2.41 2.41 0 0 1 1.04 1.085c.25.485.375 1.103.375 1.853V324h-1.341v-5.455c0-.693-.18-1.229-.54-1.607-.356-.383-.85-.574-1.483-.574-.44 0-.833.092-1.182.278a2.032 2.032 0 0 0-.818.813c-.197.356-.295.787-.295 1.295Zm13.613 1.682v-5.159h1.34V324h-1.34v-1.477h-.09a2.87 2.87 0 0 1-.955 1.13c-.432.307-.978.461-1.637.461a2.92 2.92 0 0 1-1.454-.358c-.425-.243-.758-.606-1-1.091-.243-.489-.364-1.104-.364-1.847v-5.545h1.34v5.454c0 .637.179 1.144.535 1.523.36.379.818.568 1.375.568.333 0 .672-.085 1.017-.256.349-.17.64-.431.875-.784.239-.352.358-.801.358-1.346ZM33.41 384v-11.636h6.976v1.25h-5.568v3.931h5.046v1.25h-5.046V384H33.41Zm9.114 0v-8.727h1.296v1.318h.09c.16-.432.448-.782.864-1.051a2.542 2.542 0 0 1 1.41-.404c.098 0 .22.002.369.006.147.004.259.01.335.017v1.364a3.412 3.412 0 0 0-.313-.051 3.023 3.023 0 0 0-.505-.04c-.425 0-.803.089-1.137.267-.33.174-.59.417-.784.727a1.96 1.96 0 0 0-.284 1.051V384h-1.34Zm5.953 0v-8.727h1.341V384h-1.34Zm.682-10.182a.953.953 0 0 1-.676-.267.858.858 0 0 1-.278-.642c0-.25.092-.464.278-.642a.953.953 0 0 1 .676-.267c.261 0 .485.089.67.267a.85.85 0 0 1 .285.642.85.85 0 0 1-.284.642.934.934 0 0 1-.67.267Zm-9.386 61.455a1.783 1.783 0 0 0-.83-1.341c-.485-.318-1.08-.477-1.784-.477-.515 0-.966.083-1.352.25a2.15 2.15 0 0 0-.898.687 1.648 1.648 0 0 0-.318.994c0 .311.074.578.221.802.152.219.345.403.58.551.235.144.481.263.739.358.257.09.494.164.71.221l1.182.318c.303.08.64.19 1.011.33.375.14.733.331 1.074.574.345.238.629.545.852.92.224.375.335.835.335 1.381 0 .629-.164 1.197-.494 1.704-.326.508-.803.911-1.432 1.211-.625.299-1.384.449-2.278.449-.833 0-1.555-.135-2.165-.404-.606-.269-1.083-.644-1.432-1.125A3.21 3.21 0 0 1 32.91 441h1.455c.038.439.185.803.443 1.091.261.284.59.496.988.636.402.137.834.205 1.296.205a3.8 3.8 0 0 0 1.449-.262c.428-.178.767-.424 1.017-.738.25-.318.375-.69.375-1.114 0-.386-.108-.701-.324-.943a2.389 2.389 0 0 0-.852-.591 9.096 9.096 0 0 0-1.142-.398l-1.432-.409c-.91-.261-1.629-.634-2.16-1.119-.53-.485-.795-1.119-.795-1.903 0-.652.176-1.22.529-1.705a3.506 3.506 0 0 1 1.431-1.136c.603-.273 1.275-.409 2.018-.409.75 0 1.416.134 2 .403.583.265 1.045.629 1.386 1.091.345.462.526.987.545 1.574h-1.363Zm6.226 8.932a3.552 3.552 0 0 1-1.506-.313 2.582 2.582 0 0 1-1.074-.915c-.265-.401-.398-.886-.398-1.454 0-.5.099-.906.296-1.216.197-.315.46-.561.79-.739.33-.178.693-.31 1.09-.398.402-.09.805-.162 1.21-.215.531-.069.96-.12 1.29-.154.334-.038.576-.1.728-.187.155-.087.233-.239.233-.455v-.045c0-.561-.154-.997-.46-1.307-.304-.311-.764-.466-1.381-.466-.64 0-1.142.14-1.506.42-.364.281-.62.58-.767.898l-1.273-.454c.228-.531.53-.944.91-1.239a3.398 3.398 0 0 1 1.25-.625 5.199 5.199 0 0 1 1.34-.182c.28 0 .603.034.966.102.368.065.722.199 1.063.404.344.204.63.513.858.926.227.413.34.966.34 1.659V444h-1.34v-1.182h-.069a2.35 2.35 0 0 1-.454.608c-.212.216-.494.4-.847.551-.352.152-.782.228-1.29.228Zm.204-1.205c.53 0 .977-.104 1.341-.312.367-.209.644-.478.83-.807.189-.33.284-.676.284-1.04v-1.227c-.057.068-.182.13-.375.187-.19.053-.41.101-.66.142a27.7 27.7 0 0 1-.721.102c-.231.027-.419.05-.563.069a5.108 5.108 0 0 0-.977.221 1.69 1.69 0 0 0-.727.449c-.182.197-.273.466-.273.807 0 .466.173.818.517 1.057.349.235.79.352 1.324.352Zm10.038-7.727v1.136H51.72v-1.136h4.523Zm-3.204-2.091h1.34v8.318c0 .379.056.663.166.852a.85.85 0 0 0 .431.375c.179.061.366.091.563.091.148 0 .269-.007.364-.023l.227-.045.273 1.205a2.74 2.74 0 0 1-.381.102c-.163.038-.37.057-.62.057-.378 0-.75-.082-1.113-.245a2.215 2.215 0 0 1-.898-.744c-.235-.333-.352-.754-.352-1.261v-8.682Zm-13.264 62.091a1.783 1.783 0 0 0-.83-1.341c-.485-.318-1.08-.477-1.784-.477-.515 0-.966.083-1.352.25a2.15 2.15 0 0 0-.898.687 1.648 1.648 0 0 0-.318.994c0 .311.074.578.221.802.152.219.345.403.58.551.235.144.481.263.739.358.257.09.494.164.71.221l1.182.318c.303.08.64.19 1.011.33.375.14.733.331 1.074.574.345.238.629.545.852.92.224.375.335.835.335 1.381 0 .629-.164 1.197-.494 1.704-.326.508-.803.911-1.432 1.211-.625.299-1.384.449-2.278.449-.833 0-1.555-.135-2.165-.404-.606-.269-1.083-.644-1.432-1.125A3.21 3.21 0 0 1 32.91 501h1.455c.038.439.185.803.443 1.091.261.284.59.496.988.636.402.137.834.205 1.296.205a3.8 3.8 0 0 0 1.449-.262c.428-.178.767-.424 1.017-.738.25-.318.375-.69.375-1.114 0-.386-.108-.701-.324-.943a2.389 2.389 0 0 0-.852-.591 9.096 9.096 0 0 0-1.142-.398l-1.432-.409c-.91-.261-1.629-.634-2.16-1.119-.53-.485-.795-1.119-.795-1.903 0-.652.176-1.22.529-1.705a3.506 3.506 0 0 1 1.431-1.136c.603-.273 1.275-.409 2.018-.409.75 0 1.416.134 2 .403.583.265 1.045.629 1.386 1.091.345.462.526.987.545 1.574h-1.363Zm9.157 5.159v-5.159h1.341V504h-1.34v-1.477h-.091c-.205.443-.523.82-.955 1.13-.432.307-.977.461-1.636.461-.546 0-1.03-.12-1.455-.358-.424-.243-.758-.606-1-1.091-.242-.489-.364-1.104-.364-1.847v-5.545h1.341v5.454c0 .637.178 1.144.534 1.523.36.379.819.568 1.375.568.334 0 .673-.085 1.017-.256.349-.17.64-.431.875-.784.24-.352.358-.801.358-1.346Zm5.138-1.682V504h-1.34v-8.727h1.295v1.363h.113c.205-.443.515-.799.932-1.068.417-.273.955-.409 1.614-.409.59 0 1.108.121 1.551.364.443.238.788.602 1.034 1.091.246.484.37 1.098.37 1.841V504h-1.342v-5.455c0-.685-.178-1.219-.534-1.602-.356-.386-.844-.579-1.466-.579-.428 0-.81.092-1.147.278a1.99 1.99 0 0 0-.79.813c-.193.356-.29.787-.29 1.295Zm49.431 53.614V564h-1.41v-10.159h-.068l-2.84 1.886v-1.432l2.908-1.931h1.41Zm7.869 14.909v-12h1.295v1.386h.159c.099-.151.235-.345.41-.579.178-.239.431-.451.761-.637.333-.189.784-.284 1.352-.284.735 0 1.383.184 1.943.551.561.368.998.888 1.313 1.563.314.674.471 1.469.471 2.386 0 .924-.157 1.725-.471 2.403-.315.675-.75 1.197-1.307 1.569-.557.367-1.199.551-1.926.551-.561 0-1.01-.093-1.347-.279-.337-.189-.596-.403-.778-.642a8.677 8.677 0 0 1-.421-.602h-.113v4.614h-1.341Zm1.318-7.637c0 .659.097 1.241.29 1.745.193.5.475.892.846 1.176.372.28.826.42 1.364.42.561 0 1.028-.147 1.403-.443.379-.299.663-.701.853-1.204.193-.508.29-1.072.29-1.694 0-.613-.095-1.166-.285-1.659-.185-.496-.467-.888-.846-1.176-.375-.292-.847-.437-1.415-.437-.545 0-1.004.138-1.375.414-.371.273-.651.656-.841 1.148-.189.489-.284 1.059-.284 1.71Zm8.432 4.364v-8.727h1.295v1.363h.114c.182-.466.475-.827.881-1.085.405-.261.892-.392 1.46-.392.576 0 1.055.131 1.437.392.387.258.688.619.904 1.085h.091c.223-.45.558-.808 1.005-1.074.447-.268.983-.403 1.608-.403.781 0 1.419.244 1.915.733.496.485.744 1.241.744 2.267V564h-1.34v-5.841c0-.644-.177-1.104-.529-1.381a1.957 1.957 0 0 0-1.244-.414c-.614 0-1.089.185-1.426.556-.337.368-.506.834-.506 1.398V564h-1.364v-5.977c0-.496-.161-.896-.483-1.199-.322-.307-.736-.46-1.244-.46-.348 0-.674.092-.977.278a2.1 2.1 0 0 0-.727.773 2.277 2.277 0 0 0-.273 1.13V564h-1.341Zm40.846.159c-.75 0-1.418-.129-2.005-.386-.584-.258-1.048-.616-1.392-1.074a2.883 2.883 0 0 1-.557-1.608h1.432c.03.375.159.699.386.971.227.269.525.478.892.626.368.147.775.221 1.222.221.5 0 .943-.087 1.329-.261.387-.175.69-.417.909-.728.22-.31.33-.67.33-1.079 0-.428-.106-.805-.318-1.131-.212-.329-.523-.587-.932-.772-.409-.186-.909-.279-1.5-.279h-.932v-1.25h.932c.462 0 .867-.083 1.216-.25.352-.167.627-.401.824-.704.2-.303.301-.66.301-1.069a1.96 1.96 0 0 0-.262-1.028 1.785 1.785 0 0 0-.738-.682c-.315-.163-.686-.244-1.114-.244-.401 0-.78.074-1.136.221-.352.144-.64.355-.864.631a1.645 1.645 0 0 0-.363.989h-1.364c.023-.61.206-1.144.551-1.603a3.471 3.471 0 0 1 1.352-1.079 4.364 4.364 0 0 1 1.847-.386c.72 0 1.337.145 1.852.437a3.09 3.09 0 0 1 1.188 1.142c.276.474.414.985.414 1.534 0 .655-.172 1.214-.517 1.676-.34.462-.804.783-1.392.961v.09c.735.122 1.309.434 1.722.938.413.5.619 1.119.619 1.858 0 .632-.172 1.201-.517 1.704-.341.5-.807.894-1.397 1.182-.591.288-1.264.432-2.018.432Zm10.779 3.114v-12h1.295v1.386h.159c.099-.151.235-.345.41-.579.178-.239.431-.451.761-.637.333-.189.784-.284 1.352-.284.735 0 1.383.184 1.943.551.561.368.998.888 1.313 1.563.314.674.471 1.469.471 2.386 0 .924-.157 1.725-.471 2.403-.315.675-.75 1.197-1.307 1.569-.557.367-1.199.551-1.926.551-.561 0-1.01-.093-1.347-.279-.337-.189-.596-.403-.778-.642a8.677 8.677 0 0 1-.421-.602h-.113v4.614h-1.341Zm1.318-7.637c0 .659.097 1.241.29 1.745.193.5.475.892.846 1.176.372.28.826.42 1.364.42.561 0 1.028-.147 1.403-.443.379-.299.663-.701.853-1.204.193-.508.29-1.072.29-1.694 0-.613-.095-1.166-.285-1.659-.185-.496-.467-.888-.846-1.176-.375-.292-.847-.437-1.415-.437-.545 0-1.004.138-1.375.414-.371.273-.651.656-.841 1.148-.189.489-.284 1.059-.284 1.71Zm8.432 4.364v-8.727h1.295v1.363h.114c.182-.466.475-.827.881-1.085.405-.261.892-.392 1.46-.392.576 0 1.055.131 1.437.392.387.258.688.619.904 1.085h.091c.223-.45.558-.808 1.005-1.074.447-.268.983-.403 1.608-.403.781 0 1.419.244 1.915.733.496.485.744 1.241.744 2.267V564h-1.34v-5.841c0-.644-.177-1.104-.529-1.381a1.957 1.957 0 0 0-1.244-.414c-.614 0-1.089.185-1.426.556-.337.368-.506.834-.506 1.398V564h-1.364v-5.977c0-.496-.161-.896-.483-1.199-.322-.307-.736-.46-1.244-.46-.348 0-.674.092-.977.278a2.1 2.1 0 0 0-.727.773 2.277 2.277 0 0 0-.273 1.13V564h-1.341Zm39.505.159a4.322 4.322 0 0 1-1.432-.273 3.426 3.426 0 0 1-1.307-.88c-.394-.417-.71-.979-.949-1.688-.238-.712-.358-1.606-.358-2.682 0-1.03.097-1.943.29-2.738.193-.8.474-1.472.841-2.017.368-.55.811-.966 1.33-1.25.522-.284 1.111-.426 1.767-.426.651 0 1.231.13 1.738.392.512.257.928.617 1.25 1.079.322.462.531.994.625 1.597h-1.386a2.569 2.569 0 0 0-.75-1.301c-.371-.345-.864-.517-1.477-.517-.902 0-1.612.392-2.131 1.176-.515.784-.775 1.884-.778 3.301h.091a3.423 3.423 0 0 1 1.732-1.358 3.394 3.394 0 0 1 1.131-.188 3.48 3.48 0 0 1 1.83.5c.553.33.996.786 1.329 1.37.334.579.5 1.244.5 1.994 0 .72-.161 1.379-.483 1.977a3.678 3.678 0 0 1-1.358 1.421c-.579.348-1.261.519-2.045.511Zm0-1.25c.477 0 .905-.119 1.284-.358.383-.239.684-.559.903-.96.224-.402.336-.849.336-1.341a2.68 2.68 0 0 0-.324-1.312 2.462 2.462 0 0 0-.881-.949 2.327 2.327 0 0 0-1.273-.353c-.36 0-.695.072-1.005.216-.311.14-.584.334-.819.58a2.804 2.804 0 0 0-.545.846 2.69 2.69 0 0 0 1.023 3.262c.382.246.816.369 1.301.369Zm10.643 4.364v-12h1.296v1.386h.159c.098-.151.235-.345.409-.579.178-.239.432-.451.761-.637.334-.189.784-.284 1.353-.284.734 0 1.382.184 1.943.551.56.368.998.888 1.312 1.563.315.674.472 1.469.472 2.386 0 .924-.157 1.725-.472 2.403-.314.675-.75 1.197-1.307 1.569-.556.367-1.198.551-1.926.551-.56 0-1.009-.093-1.346-.279-.337-.189-.597-.403-.779-.642a8.61 8.61 0 0 1-.42-.602h-.114v4.614h-1.341Zm1.319-7.637c0 .659.096 1.241.289 1.745.193.5.476.892.847 1.176.371.28.826.42 1.364.42.56 0 1.028-.147 1.403-.443.379-.299.663-.701.852-1.204.193-.508.29-1.072.29-1.694 0-.613-.095-1.166-.284-1.659-.186-.496-.468-.888-.847-1.176-.375-.292-.846-.437-1.414-.437-.546 0-1.004.138-1.375.414-.372.273-.652.656-.841 1.148-.19.489-.284 1.059-.284 1.71Zm8.431 4.364v-8.727h1.296v1.363h.113c.182-.466.476-.827.881-1.085.405-.261.892-.392 1.46-.392.576 0 1.055.131 1.438.392.386.258.687.619.903 1.085h.091c.224-.45.559-.808 1.006-1.074.447-.268.983-.403 1.608-.403.78 0 1.418.244 1.915.733.496.485.744 1.241.744 2.267V564h-1.341v-5.841c0-.644-.176-1.104-.528-1.381a1.96 1.96 0 0 0-1.245-.414c-.613 0-1.089.185-1.426.556-.337.368-.506.834-.506 1.398V564h-1.363v-5.977c0-.496-.161-.896-.483-1.199-.322-.307-.737-.46-1.244-.46-.349 0-.675.092-.978.278a2.107 2.107 0 0 0-.727.773 2.277 2.277 0 0 0-.273 1.13V564h-1.341Zm39.448-11.795c.477.003.954.094 1.432.272.477.178.912.474 1.306.887.394.409.711.967.949 1.676.239.708.358 1.596.358 2.665 0 1.034-.098 1.952-.295 2.755-.193.799-.474 1.474-.841 2.023-.364.549-.807.966-1.33 1.25-.519.284-1.106.426-1.761.426-.652 0-1.233-.129-1.744-.386a3.42 3.42 0 0 1-1.25-1.085 3.782 3.782 0 0 1-.62-1.62h1.387c.125.534.373.976.744 1.324.375.345.869.517 1.483.517.898 0 1.606-.392 2.125-1.176.523-.784.784-1.892.784-3.324h-.091a3.561 3.561 0 0 1-.756.824 3.319 3.319 0 0 1-.971.534 3.406 3.406 0 0 1-1.136.188 3.536 3.536 0 0 1-1.836-.495 3.748 3.748 0 0 1-1.329-1.369c-.33-.583-.495-1.25-.495-2 0-.712.16-1.364.478-1.955a3.689 3.689 0 0 1 1.352-1.42c.583-.352 1.269-.523 2.057-.511Zm0 1.25c-.477 0-.907.119-1.29.357-.379.235-.68.554-.903.955a2.69 2.69 0 0 0-.33 1.324c0 .485.106.926.318 1.324.216.394.51.708.881.943.375.231.801.347 1.278.347.36 0 .695-.071 1.006-.211.311-.144.581-.339.813-.585.234-.25.418-.532.551-.847.132-.318.199-.649.199-.994 0-.454-.11-.881-.33-1.278a2.61 2.61 0 0 0-.898-.966 2.324 2.324 0 0 0-1.295-.369Zm10.802 13.818v-12h1.296v1.386h.159c.098-.151.235-.345.409-.579.178-.239.432-.451.761-.637.334-.189.784-.284 1.353-.284.734 0 1.382.184 1.943.551.56.368.998.888 1.312 1.563.315.674.472 1.469.472 2.386 0 .924-.157 1.725-.472 2.403-.314.675-.75 1.197-1.307 1.569-.556.367-1.198.551-1.926.551-.56 0-1.009-.093-1.346-.279-.337-.189-.597-.403-.779-.642a8.61 8.61 0 0 1-.42-.602h-.114v4.614h-1.341Zm1.319-7.637c0 .659.096 1.241.289 1.745.193.5.476.892.847 1.176.371.28.826.42 1.364.42.56 0 1.028-.147 1.403-.443.379-.299.663-.701.852-1.204.193-.508.29-1.072.29-1.694 0-.613-.095-1.166-.284-1.659-.186-.496-.468-.888-.847-1.176-.375-.292-.846-.437-1.414-.437-.546 0-1.004.138-1.375.414-.372.273-.652.656-.841 1.148-.19.489-.284 1.059-.284 1.71Zm8.431 4.364v-8.727h1.296v1.363h.113c.182-.466.476-.827.881-1.085.405-.261.892-.392 1.46-.392.576 0 1.055.131 1.438.392.386.258.687.619.903 1.085h.091c.224-.45.559-.808 1.006-1.074.447-.268.983-.403 1.608-.403.78 0 1.418.244 1.915.733.496.485.744 1.241.744 2.267V564h-1.341v-5.841c0-.644-.176-1.104-.528-1.381a1.96 1.96 0 0 0-1.245-.414c-.613 0-1.089.185-1.426.556-.337.368-.506.834-.506 1.398V564h-1.363v-5.977c0-.496-.161-.896-.483-1.199-.322-.307-.737-.46-1.244-.46-.349 0-.675.092-.978.278a2.107 2.107 0 0 0-.727.773 2.277 2.277 0 0 0-.273 1.13V564h-1.341Zm36.264-11.636V564h-1.409v-10.159h-.068l-2.841 1.886v-1.432l2.909-1.931h1.409ZM342.001 564v-1.023l3.841-4.204c.451-.493.822-.921 1.114-1.284a4.75 4.75 0 0 0 .648-1.034c.144-.326.216-.667.216-1.023 0-.409-.099-.763-.296-1.063a1.917 1.917 0 0 0-.795-.693 2.578 2.578 0 0 0-1.137-.244c-.447 0-.837.093-1.17.278a1.92 1.92 0 0 0-.767.767c-.178.33-.267.716-.267 1.159h-1.341c0-.681.157-1.28.471-1.795a3.284 3.284 0 0 1 1.285-1.205c.545-.288 1.157-.431 1.835-.431.682 0 1.286.143 1.812.431.527.288.94.676 1.239 1.165.299.489.449 1.032.449 1.631 0 .428-.078.846-.233 1.256-.152.405-.417.857-.796 1.357-.375.497-.895 1.103-1.562 1.819l-2.614 2.795v.091h5.409V564h-7.341Zm14.211 3.273v-12h1.295v1.386h.159c.099-.151.235-.345.409-.579.178-.239.432-.451.762-.637.333-.189.784-.284 1.352-.284.735 0 1.382.184 1.943.551.561.368.998.888 1.313 1.563.314.674.471 1.469.471 2.386 0 .924-.157 1.725-.471 2.403-.315.675-.75 1.197-1.307 1.569-.557.367-1.199.551-1.926.551-.561 0-1.01-.093-1.347-.279-.337-.189-.597-.403-.778-.642a8.677 8.677 0 0 1-.421-.602h-.113v4.614h-1.341Zm1.318-7.637c0 .659.096 1.241.29 1.745.193.5.475.892.846 1.176.371.28.826.42 1.364.42.56 0 1.028-.147 1.403-.443.379-.299.663-.701.853-1.204a4.734 4.734 0 0 0 .289-1.694c0-.613-.094-1.166-.284-1.659-.185-.496-.468-.888-.846-1.176-.375-.292-.847-.437-1.415-.437-.546 0-1.004.138-1.375.414-.371.273-.652.656-.841 1.148-.189.489-.284 1.059-.284 1.71Zm8.432 4.364v-8.727h1.295v1.363h.114c.182-.466.475-.827.88-1.085.406-.261.892-.392 1.461-.392.575 0 1.055.131 1.437.392.387.258.688.619.904 1.085h.09c.224-.45.559-.808 1.006-1.074.447-.268.983-.403 1.608-.403.78 0 1.419.244 1.915.733.496.485.744 1.241.744 2.267V564h-1.341v-5.841c0-.644-.176-1.104-.528-1.381a1.957 1.957 0 0 0-1.244-.414c-.614 0-1.089.185-1.427.556-.337.368-.505.834-.505 1.398V564h-1.364v-5.977c0-.496-.161-.896-.483-1.199-.322-.307-.737-.46-1.244-.46-.349 0-.674.092-.977.278-.3.186-.542.443-.728.773a2.277 2.277 0 0 0-.272 1.13V564h-1.341Zm37.904-11.636V564h-1.409v-10.159h-.069l-2.84 1.886v-1.432l2.909-1.931h1.409Zm10.437 11.841a3.546 3.546 0 0 1-1.505-.313 2.58 2.58 0 0 1-1.074-.915c-.265-.401-.398-.886-.398-1.454 0-.5.098-.906.295-1.216.197-.315.461-.561.79-.739.33-.178.693-.31 1.091-.398.402-.09.805-.162 1.21-.215.531-.069.961-.12 1.29-.154.333-.038.576-.1.727-.187.156-.087.233-.239.233-.455v-.045c0-.561-.153-.997-.46-1.307-.303-.311-.763-.466-1.381-.466-.64 0-1.142.14-1.505.42-.364.281-.62.58-.767.898l-1.273-.454c.227-.531.53-.944.909-1.239a3.406 3.406 0 0 1 1.25-.625 5.205 5.205 0 0 1 1.341-.182c.28 0 .602.034.966.102.367.065.721.199 1.062.404.345.204.631.513.858.926.228.413.341.966.341 1.659V564h-1.341v-1.182h-.068c-.091.19-.242.392-.454.608-.212.216-.495.4-.847.551-.352.152-.782.228-1.29.228Zm.205-1.205c.53 0 .977-.104 1.341-.312a2.133 2.133 0 0 0 1.113-1.847v-1.227c-.056.068-.181.13-.375.187a6.143 6.143 0 0 1-.659.142 27.7 27.7 0 0 1-.721.102c-.231.027-.419.05-.563.069a5.114 5.114 0 0 0-.977.221 1.684 1.684 0 0 0-.727.449c-.182.197-.273.466-.273.807 0 .466.172.818.517 1.057.348.235.79.352 1.324.352Zm6.243 1v-8.727h1.295v1.363h.114c.182-.466.475-.827.88-1.085.406-.261.893-.392 1.461-.392.575 0 1.055.131 1.437.392.387.258.688.619.904 1.085h.091c.223-.45.558-.808 1.005-1.074.447-.268.983-.403 1.608-.403.78 0 1.419.244 1.915.733.496.485.744 1.241.744 2.267V564h-1.341v-5.841c0-.644-.176-1.104-.528-1.381a1.957 1.957 0 0 0-1.244-.414c-.614 0-1.089.185-1.427.556-.337.368-.505.834-.505 1.398V564h-1.364v-5.977c0-.496-.161-.896-.483-1.199-.322-.307-.737-.46-1.244-.46-.349 0-.674.092-.977.278-.3.186-.542.443-.728.773a2.288 2.288 0 0 0-.272 1.13V564h-1.341Zm37.899 0v-1.023l3.841-4.204c.451-.493.822-.921 1.113-1.284a4.75 4.75 0 0 0 .648-1.034c.144-.326.216-.667.216-1.023 0-.409-.098-.763-.295-1.063a1.926 1.926 0 0 0-.796-.693 2.576 2.576 0 0 0-1.136-.244c-.447 0-.837.093-1.171.278a1.926 1.926 0 0 0-.767.767c-.178.33-.267.716-.267 1.159h-1.341c0-.681.158-1.28.472-1.795a3.275 3.275 0 0 1 1.284-1.205c.545-.288 1.157-.431 1.835-.431.682 0 1.286.143 1.813.431.526.288.939.676 1.238 1.165.3.489.449 1.032.449 1.631 0 .428-.077.846-.233 1.256-.151.405-.416.857-.795 1.357-.375.497-.896 1.103-1.563 1.819l-2.613 2.795v.091h5.409V564h-7.341Zm16.778.205a3.546 3.546 0 0 1-1.505-.313 2.58 2.58 0 0 1-1.074-.915c-.265-.401-.398-.886-.398-1.454 0-.5.098-.906.295-1.216.197-.315.461-.561.79-.739.33-.178.693-.31 1.091-.398.402-.09.805-.162 1.21-.215.531-.069.961-.12 1.29-.154.333-.038.576-.1.727-.187.156-.087.233-.239.233-.455v-.045c0-.561-.153-.997-.46-1.307-.303-.311-.763-.466-1.381-.466-.64 0-1.142.14-1.505.42-.364.281-.62.58-.767.898l-1.273-.454c.227-.531.53-.944.909-1.239a3.406 3.406 0 0 1 1.25-.625 5.205 5.205 0 0 1 1.341-.182c.28 0 .602.034.966.102.367.065.721.199 1.062.404.345.204.631.513.858.926.228.413.341.966.341 1.659V564h-1.341v-1.182h-.068c-.091.19-.242.392-.454.608-.212.216-.495.4-.847.551-.352.152-.782.228-1.29.228Zm.205-1.205c.53 0 .977-.104 1.341-.312a2.133 2.133 0 0 0 1.113-1.847v-1.227c-.056.068-.181.13-.375.187a6.143 6.143 0 0 1-.659.142 27.7 27.7 0 0 1-.721.102c-.231.027-.419.05-.563.069a5.114 5.114 0 0 0-.977.221 1.684 1.684 0 0 0-.727.449c-.182.197-.273.466-.273.807 0 .466.172.818.517 1.057.348.235.79.352 1.324.352Zm6.243 1v-8.727h1.295v1.363h.114c.182-.466.475-.827.88-1.085.406-.261.893-.392 1.461-.392.575 0 1.055.131 1.437.392.387.258.688.619.904 1.085h.091c.223-.45.558-.808 1.005-1.074.447-.268.983-.403 1.608-.403.78 0 1.419.244 1.915.733.496.485.744 1.241.744 2.267V564h-1.341v-5.841c0-.644-.176-1.104-.528-1.381a1.957 1.957 0 0 0-1.244-.414c-.614 0-1.089.185-1.427.556-.337.368-.505.834-.505 1.398V564h-1.364v-5.977c0-.496-.161-.896-.483-1.199-.322-.307-.737-.46-1.244-.46-.349 0-.674.092-.977.278-.3.186-.542.443-.728.773a2.288 2.288 0 0 0-.272 1.13V564h-1.341Zm40.456.159c-.75 0-1.419-.129-2.006-.386-.583-.258-1.047-.616-1.392-1.074a2.883 2.883 0 0 1-.557-1.608h1.432c.03.375.159.699.386.971.228.269.525.478.892.626.368.147.775.221 1.222.221.5 0 .943-.087 1.329-.261.387-.175.69-.417.91-.728.219-.31.329-.67.329-1.079 0-.428-.106-.805-.318-1.131-.212-.329-.523-.587-.932-.772-.409-.186-.909-.279-1.5-.279h-.932v-1.25h.932c.462 0 .868-.083 1.216-.25.352-.167.627-.401.824-.704a1.89 1.89 0 0 0 .301-1.069c0-.394-.087-.736-.261-1.028a1.793 1.793 0 0 0-.739-.682c-.314-.163-.686-.244-1.114-.244-.401 0-.78.074-1.136.221-.352.144-.64.355-.864.631a1.645 1.645 0 0 0-.363.989h-1.364c.023-.61.207-1.144.551-1.603a3.467 3.467 0 0 1 1.353-1.079 4.36 4.36 0 0 1 1.846-.386c.72 0 1.337.145 1.852.437.516.288.911.669 1.188 1.142.276.474.415.985.415 1.534 0 .655-.173 1.214-.517 1.676a2.623 2.623 0 0 1-1.392.961v.09c.734.122 1.308.434 1.721.938.413.5.619 1.119.619 1.858 0 .632-.172 1.201-.517 1.704-.34.5-.806.894-1.397 1.182-.591.288-1.264.432-2.017.432Zm13.346.046a3.546 3.546 0 0 1-1.505-.313 2.58 2.58 0 0 1-1.074-.915c-.265-.401-.398-.886-.398-1.454 0-.5.098-.906.295-1.216.197-.315.461-.561.79-.739.33-.178.693-.31 1.091-.398.402-.09.805-.162 1.21-.215.531-.069.961-.12 1.29-.154.333-.038.576-.1.727-.187.156-.087.233-.239.233-.455v-.045c0-.561-.153-.997-.46-1.307-.303-.311-.763-.466-1.381-.466-.64 0-1.142.14-1.505.42-.364.281-.62.58-.767.898l-1.273-.454c.227-.531.53-.944.909-1.239a3.406 3.406 0 0 1 1.25-.625 5.205 5.205 0 0 1 1.341-.182c.28 0 .602.034.966.102.367.065.721.199 1.062.404.345.204.631.513.858.926.228.413.341.966.341 1.659V564h-1.341v-1.182h-.068c-.091.19-.242.392-.454.608-.212.216-.495.4-.847.551-.352.152-.782.228-1.29.228Zm.205-1.205c.53 0 .977-.104 1.341-.312a2.133 2.133 0 0 0 1.113-1.847v-1.227c-.056.068-.181.13-.375.187a6.143 6.143 0 0 1-.659.142 27.7 27.7 0 0 1-.721.102c-.231.027-.419.05-.563.069a5.114 5.114 0 0 0-.977.221 1.684 1.684 0 0 0-.727.449c-.182.197-.273.466-.273.807 0 .466.172.818.517 1.057.348.235.79.352 1.324.352Zm6.243 1v-8.727h1.295v1.363h.114c.182-.466.475-.827.88-1.085.406-.261.893-.392 1.461-.392.575 0 1.055.131 1.437.392.387.258.688.619.904 1.085h.091c.223-.45.558-.808 1.005-1.074.447-.268.983-.403 1.608-.403.78 0 1.419.244 1.915.733.496.485.744 1.241.744 2.267V564h-1.341v-5.841c0-.644-.176-1.104-.528-1.381a1.957 1.957 0 0 0-1.244-.414c-.614 0-1.089.185-1.427.556-.337.368-.505.834-.505 1.398V564h-1.364v-5.977c0-.496-.161-.896-.483-1.199-.322-.307-.737-.46-1.244-.46-.349 0-.674.092-.977.278-.3.186-.542.443-.728.773a2.288 2.288 0 0 0-.272 1.13V564h-1.341Zm35.962-2.386v-1.159l5.114-8.091h.841v1.795h-.569l-3.863 6.114v.091h6.886v1.25h-8.409Zm5.477 2.386v-11.636h1.341V564h-1.341Zm12.152.205a3.546 3.546 0 0 1-1.505-.313 2.58 2.58 0 0 1-1.074-.915c-.265-.401-.398-.886-.398-1.454 0-.5.099-.906.296-1.216.196-.315.46-.561.789-.739.33-.178.693-.31 1.091-.398.402-.09.805-.162 1.21-.215.531-.069.961-.12 1.29-.154.334-.038.576-.1.727-.187.156-.087.233-.239.233-.455v-.045c0-.561-.153-.997-.46-1.307-.303-.311-.763-.466-1.38-.466-.641 0-1.143.14-1.506.42-.364.281-.619.58-.767.898l-1.273-.454c.227-.531.53-.944.909-1.239a3.406 3.406 0 0 1 1.25-.625 5.205 5.205 0 0 1 1.341-.182c.28 0 .602.034.966.102a3.09 3.09 0 0 1 1.062.404c.345.204.631.513.858.926.228.413.341.966.341 1.659V564h-1.341v-1.182h-.068c-.091.19-.242.392-.454.608-.212.216-.495.4-.847.551-.352.152-.782.228-1.29.228Zm.205-1.205c.53 0 .977-.104 1.341-.312a2.133 2.133 0 0 0 1.113-1.847v-1.227c-.056.068-.181.13-.375.187a6.143 6.143 0 0 1-.659.142 27.7 27.7 0 0 1-.721.102c-.231.027-.419.05-.563.069a5.114 5.114 0 0 0-.977.221 1.684 1.684 0 0 0-.727.449c-.182.197-.273.466-.273.807 0 .466.172.818.517 1.057.348.235.79.352 1.324.352Zm6.243 1v-8.727h1.295v1.363h.114c.182-.466.475-.827.881-1.085.405-.261.892-.392 1.46-.392.576 0 1.055.131 1.437.392.387.258.688.619.904 1.085h.091c.223-.45.558-.808 1.005-1.074.447-.268.983-.403 1.608-.403.781 0 1.419.244 1.915.733.496.485.744 1.241.744 2.267V564h-1.341v-5.841c0-.644-.176-1.104-.528-1.381a1.957 1.957 0 0 0-1.244-.414c-.614 0-1.089.185-1.426.556-.338.368-.506.834-.506 1.398V564h-1.364v-5.977c0-.496-.161-.896-.483-1.199-.322-.307-.736-.46-1.244-.46-.349 0-.674.092-.977.278-.3.186-.542.443-.728.773a2.288 2.288 0 0 0-.272 1.13V564h-1.341Z"/><rect width="52" height="52" x="90" y="112" fill="#EBD8FC" rx="12"/><rect width="52" height="52" x="150" y="112" fill="#D4B1FA" rx="12"/><rect width="52" height="52" x="210" y="112" fill="#BB8BF8" rx="12"/><rect width="52" height="52" x="270" y="112" fill="#EBD8FC" rx="12"/><rect width="52" height="52" x="330" y="112" fill="#D4B1FA" rx="12"/><rect width="52" height="52" x="390" y="112" fill="#321E8D" rx="12"/><rect width="52" height="52" x="450" y="112" fill="#BB8BF8" rx="12"/><rect width="52" height="52" x="510" y="112" fill="#EBD8FC" rx="12"/><rect width="52" height="52" x="570" y="112" fill="#EBD8FC" rx="12"/><rect width="52" height="52" x="90" y="172" fill="#BB8BF8" rx="12"/><rect width="52" height="52" x="150" y="172" fill="#321E8D" rx="12"/><rect width="52" height="52" x="210" y="172" fill="#492AB0" rx="12"/><rect width="52" height="52" x="270" y="172" fill="#D4B1FA" rx="12"/><rect width="52" height="52" x="330" y="172" fill="#A570F7" rx="12"/><rect width="52" height="52" x="390" y="172" fill="#EBD8FC" rx="12"/><rect width="52" height="52" x="450" y="172" fill="#EBD8FC" rx="12"/><rect width="52" height="52" x="510" y="172" fill="#A570F7" rx="12"/><rect width="52" height="52" x="570" y="172" fill="#321E8D" rx="12"/><rect width="52" height="52" x="90" y="232" fill="#A570F7" rx="12"/><rect width="52" height="52" x="150" y="232" fill="#EBD8FC" rx="12"/><rect width="52" height="52" x="210" y="232" fill="#A570F7" rx="12"/><rect width="52" height="52" x="270" y="232" fill="#EBD8FC" rx="12"/><rect width="52" height="52" x="330" y="232" fill="#BB8BF8" rx="12"/><rect width="52" height="52" x="390" y="232" fill="#321E8D" rx="12"/><rect width="52" height="52" x="450" y="232" fill="#492AB0" rx="12"/><rect width="52" height="52" x="510" y="232" fill="#D4B1FA" rx="12"/><rect width="52" height="52" x="570" y="232" fill="#BB8BF8" rx="12"/><rect width="52" height="52" x="90" y="292" fill="#BB8BF8" rx="12"/><rect width="52" height="52" x="150" y="292" fill="#321E8D" rx="12"/><rect width="52" height="52" x="210" y="292" fill="#D4B1FA" rx="12"/><rect width="52" height="52" x="270" y="292" fill="#EBD8FC" rx="12"/><rect width="52" height="52" x="330" y="292" fill="#EBD8FC" rx="12"/><rect width="52" height="52" x="390" y="292" fill="#A570F7" rx="12"/><rect width="52" height="52" x="450" y="292" fill="#D4B1FA" rx="12"/><rect width="52" height="52" x="510" y="292" fill="#A570F7" rx="12"/><rect width="52" height="52" x="570" y="292" fill="#BB8BF8" rx="12"/><rect width="52" height="52" x="90" y="352" fill="#EBD8FC" rx="12"/><rect width="52" height="52" x="150" y="352" fill="#492AB0" rx="12"/><rect width="52" height="52" x="210" y="352" fill="#321E8D" rx="12"/><rect width="52" height="52" x="270" y="352" fill="#EBD8FC" rx="12"/><rect width="52" height="52" x="330" y="352" fill="#BB8BF8" rx="12"/><rect width="52" height="52" x="390" y="352" fill="#492AB0" rx="12"/><rect width="52" height="52" x="450" y="352" fill="#EBD8FC" rx="12"/><rect width="52" height="52" x="510" y="352" fill="#492AB0" rx="12"/><rect width="52" height="52" x="570" y="352" fill="#D4B1FA" rx="12"/><rect width="52" height="52" x="90" y="412" fill="#D4B1FA" rx="12"/><rect width="52" height="52" x="150" y="412" fill="#EBD8FC" rx="12"/><rect width="52" height="52" x="210" y="412" fill="#EBD8FC" rx="12"/><rect width="52" height="52" x="270" y="412" fill="#D4B1FA" rx="12"/><rect width="52" height="52" x="330" y="412" fill="#BB8BF8" rx="12"/><rect width="52" height="52" x="390" y="412" fill="#EBD8FC" rx="12"/><rect width="52" height="52" x="450" y="412" fill="#492AB0" rx="12"/><rect width="52" height="52" x="510" y="412" fill="#321E8D" rx="12"/><rect width="52" height="52" x="570" y="412" fill="#EBD8FC" rx="12"/><rect width="52" height="52" x="90" y="472" fill="#EBD8FC" rx="12"/><rect width="52" height="52" x="150" y="472" fill="#BB8BF8" rx="12"/><rect width="52" height="52" x="210" y="472" fill="#321E8D" rx="12"/><rect width="52" height="52" x="270" y="472" fill="#A570F7" rx="12"/><rect width="52" height="52" x="330" y="472" fill="#BB8BF8" rx="12"/><rect width="52" height="52" x="390" y="472" fill="#EBD8FC" rx="12"/><rect width="52" height="52" x="450" y="472" fill="#D4B1FA" rx="12"/><rect width="52" height="52" x="510" y="472" fill="#EBD8FC" rx="12"/><rect width="52" height="52" x="570" y="472" fill="#BB8BF8" rx="12"/></svg>