<svg xmlns="http://www.w3.org/2000/svg" width="600" height="600" fill="none"><g clip-path="url(#a)"><g filter="url(#b)"><rect width="50" height="30" x="359" y="499" fill="#FF75D8" rx="15"/></g><path fill="url(#c)" d="M79.524 252.722C37.5 252.722 0 285.175 0 285.175v193.823h600V211.45s-19.5-22.812-50.336-30.199c-55.58-13.315-63.338 83.891-112.164 83.891-35.864 0-38.341-60.739-86.16-66.275-47.82-5.537-69.391 133.944-146.479 132.372-57.748-1.178-92.861-78.517-125.337-78.517Z"/><path stroke="url(#d)" stroke-linecap="round" stroke-width="5" d="M1 284.759S37.5 252.6 79.524 252.6c34.976 0 67.589 77.211 125.337 78.387 77.088 1.57 98.659-137.679 146.479-132.152C399.159 204.363 401.636 265 437.5 265c48.826 0 56.584-97.044 112.164-83.751C580.5 188.624 600 211.397 600 211.397"/><path fill="url(#e)" d="M344 134c0-11.046 8.954-20 20-20h40c11.046 0 20 8.954 20 20v345h-80V134Z" opacity=".3"/><g filter="url(#f)"><circle cx="384" cy="213" r="25" fill="url(#g)"/><circle cx="384" cy="213" r="22" stroke="#fff" stroke-width="6"/></g><path fill="#454459" d="M44.85 518.141c1.658 0 2.636-.979 2.636-2.643v-5.953h-1.312v5.941c0 .967-.469 1.483-1.336 1.483-.785 0-1.19-.504-1.242-1.149l-.006-.052h-1.295l.006.07c.07 1.348.984 2.303 2.549 2.303Zm5.753-.03c.815 0 1.53-.422 1.887-1.084h.024V518h1.271v-4.248c0-1.236-.955-2.033-2.46-2.033-1.518 0-2.438.814-2.526 1.875l-.006.064h1.195l.012-.053c.105-.492.557-.837 1.29-.837.784 0 1.224.41 1.224 1.089v.463l-1.676.1c-1.46.088-2.291.744-2.291 1.816v.012c0 1.107.826 1.863 2.056 1.863Zm-.779-1.892v-.012c0-.521.422-.855 1.184-.902l1.506-.094v.48c0 .803-.674 1.407-1.565 1.407-.68 0-1.125-.34-1.125-.879ZM55.016 518h1.265v-3.592c0-.961.575-1.605 1.465-1.605.879 0 1.313.521 1.313 1.447V518h1.271v-3.99c0-1.418-.78-2.291-2.133-2.291-.931 0-1.564.422-1.887 1.049h-.029v-.932h-1.265V518Z" opacity=".5"/><path fill="#fff" d="M373.424 518h1.365v-6.012h.041l2.438 6.012h1.025l2.437-6.012h.047V518h1.36v-8.455h-1.746l-2.59 6.457h-.041l-2.59-6.457h-1.746V518Zm11.742.105c.82 0 1.512-.41 1.869-1.06h.035V518h1.459v-4.271c0-1.249-1.002-2.069-2.554-2.069-1.577 0-2.532.826-2.62 1.928l-.005.07h1.353l.012-.053c.094-.457.515-.779 1.207-.779.738 0 1.148.381 1.148 1.008v.428l-1.623.099c-1.506.094-2.361.756-2.361 1.858v.011c0 1.108.838 1.875 2.08 1.875Zm-.627-1.933v-.006c0-.492.393-.803 1.113-.85l1.418-.087v.468c0 .739-.632 1.295-1.47 1.295-.639 0-1.061-.31-1.061-.82Zm5.977 3.89c1.295 0 2.021-.486 2.496-1.851l2.232-6.422h-1.535l-1.459 4.969h-.041l-1.453-4.969h-1.594l2.233 6.217-.088.252c-.188.521-.498.68-1.055.68a2.37 2.37 0 0 1-.486-.053v1.113c.175.029.468.064.75.064Z"/><path fill="#454459" d="M124.088 518h1.312v-3.539h3.633v-1.107H125.4v-2.678h3.967v-1.131h-5.279V518Zm8.689.123c1.494 0 2.444-.891 2.643-1.869l.012-.065h-1.202l-.017.047c-.158.463-.656.85-1.406.85-1.008 0-1.647-.68-1.67-1.846h4.365v-.428c0-1.851-1.061-3.093-2.789-3.093-1.729 0-2.842 1.289-2.842 3.217v.005c0 1.946 1.096 3.182 2.906 3.182Zm-.058-5.367c.826 0 1.424.521 1.529 1.588h-3.094c.112-1.032.744-1.588 1.565-1.588Zm7.043 5.367c1.564 0 2.578-1.242 2.578-3.205v-.006c0-1.963-1.02-3.193-2.567-3.193-.873 0-1.576.439-1.945 1.166h-.029v-3.34h-1.266V518h1.266v-1.043h.029c.363.721 1.049 1.166 1.934 1.166Zm-.334-1.09c-.961 0-1.635-.832-1.635-2.115v-.006c0-1.277.68-2.109 1.635-2.109.996 0 1.617.808 1.617 2.109v.006c0 1.312-.621 2.115-1.617 2.115Zm68.802.967h1.196v-6.24h.041l2.549 6.24h.972l2.549-6.24h.041V518h1.195v-8.455h-1.511l-2.742 6.75h-.036l-2.736-6.75h-1.518V518Zm11.596.111c.815 0 1.529-.422 1.887-1.084h.023V518h1.272v-4.248c0-1.236-.955-2.033-2.461-2.033-1.518 0-2.438.814-2.526 1.875l-.005.064h1.195l.012-.053c.105-.492.556-.837 1.289-.837.785 0 1.224.41 1.224 1.089v.463l-1.675.1c-1.459.088-2.291.744-2.291 1.816v.012c0 1.107.826 1.863 2.056 1.863Zm-.779-1.892v-.012c0-.521.422-.855 1.183-.902l1.506-.094v.48c0 .803-.674 1.407-1.564 1.407-.68 0-1.125-.34-1.125-.879Zm5.191 1.781h1.266v-3.674c0-.92.504-1.453 1.318-1.453.246 0 .469.029.569.07v-1.177c-.1-.018-.258-.047-.44-.047-.703 0-1.219.451-1.418 1.172h-.029v-1.055h-1.266V518Zm238.895.141c1.658 0 2.637-.979 2.637-2.643v-5.953h-1.313v5.941c0 .967-.469 1.483-1.336 1.483-.785 0-1.189-.504-1.242-1.149l-.006-.052h-1.295l.006.07c.07 1.348.984 2.303 2.549 2.303Zm6.158-.018c.938 0 1.564-.428 1.887-1.049h.029V518h1.272v-6.164h-1.272v3.598c0 .961-.574 1.599-1.465 1.599-.879 0-1.312-.515-1.312-1.447v-3.75h-1.266v3.996c0 1.418.774 2.291 2.127 2.291Zm4.441-.123h1.266v-3.592c0-.961.574-1.605 1.465-1.605.879 0 1.312.521 1.312 1.447V518h1.272v-3.99c0-1.418-.779-2.291-2.133-2.291-.932 0-1.564.422-1.887 1.049h-.029v-.932h-1.266V518Zm-182.378 0h1.376l.78-2.285h3.258l.773 2.285h1.377l-3.07-8.455h-1.418L291.354 518Zm3.773-7.055h.023l1.26 3.715h-2.549l1.266-3.715Zm4.576 9.106h1.266v-3.088h.029c.363.715 1.072 1.16 1.945 1.16 1.547 0 2.561-1.236 2.561-3.199v-.006c0-1.969-1.008-3.199-2.578-3.199-.879 0-1.559.445-1.928 1.177h-.029v-1.06h-1.266v8.215Zm2.895-3.018c-.955 0-1.635-.832-1.635-2.109v-.006c0-1.283.674-2.115 1.635-2.115.99 0 1.617.802 1.617 2.115v.006c0 1.301-.621 2.109-1.617 2.109Zm3.89.967h1.266v-3.674c0-.92.504-1.453 1.318-1.453.246 0 .469.029.569.07v-1.177c-.1-.018-.258-.047-.44-.047-.703 0-1.219.451-1.418 1.172h-.029v-1.055h-1.266V518Zm238.608.141c1.658 0 2.636-.979 2.636-2.643v-5.953h-1.312v5.941c0 .967-.469 1.483-1.336 1.483-.785 0-1.189-.504-1.242-1.149l-.006-.052h-1.295l.006.07c.07 1.348.984 2.303 2.549 2.303Zm6.158-.018c.937 0 1.564-.428 1.887-1.049h.029V518h1.271v-6.164h-1.271v3.598c0 .961-.574 1.599-1.465 1.599-.879 0-1.312-.515-1.312-1.447v-3.75h-1.266v3.996c0 1.418.773 2.291 2.127 2.291Zm4.488-.123h1.266v-8.455h-1.266V518Z" opacity=".5"/><path stroke="#454459" d="M0 479h600" opacity=".1"/></g><defs><linearGradient id="c" x1="300" x2="300" y1="179.998" y2="478.998" gradientUnits="userSpaceOnUse"><stop stop-color="#B09FFF" stop-opacity=".3"/><stop offset="1" stop-color="#8D79F6" stop-opacity="0"/></linearGradient><linearGradient id="d" x1="300.5" x2="300.5" y1="179.998" y2="331" gradientUnits="userSpaceOnUse"><stop stop-color="#B09FFF"/><stop offset="1" stop-color="#8D79F6"/></linearGradient><linearGradient id="e" x1="384" x2="384" y1="114" y2="479" gradientUnits="userSpaceOnUse"><stop stop-color="#B09FFF" stop-opacity=".15"/><stop offset="1" stop-color="#8D79F6"/></linearGradient><linearGradient id="g" x1="384" x2="384" y1="188" y2="238" gradientUnits="userSpaceOnUse"><stop stop-color="#FD95D3"/><stop offset="1" stop-color="#FF5CBE"/></linearGradient><filter id="b" width="100" height="80" x="334" y="479" color-interpolation-filters="sRGB" filterUnits="userSpaceOnUse"><feFlood flood-opacity="0" result="BackgroundImageFix"/><feColorMatrix in="SourceAlpha" result="hardAlpha" values="0 0 0 0 0 0 0 0 0 0 0 0 0 0 0 0 0 0 127 0"/><feOffset dy="5"/><feGaussianBlur stdDeviation="12.5"/><feColorMatrix values="0 0 0 0 0 0 0 0 0 0 0 0 0 0 0 0 0 0 0.1 0"/><feBlend in2="BackgroundImageFix" result="effect1_dropShadow_9_4"/><feBlend in="SourceGraphic" in2="effect1_dropShadow_9_4" result="shape"/></filter><filter id="f" width="100" height="100" x="334" y="168" color-interpolation-filters="sRGB" filterUnits="userSpaceOnUse"><feFlood flood-opacity="0" result="BackgroundImageFix"/><feColorMatrix in="SourceAlpha" result="hardAlpha" values="0 0 0 0 0 0 0 0 0 0 0 0 0 0 0 0 0 0 127 0"/><feOffset dy="5"/><feGaussianBlur stdDeviation="12.5"/><feColorMatrix values="0 0 0 0 0 0 0 0 0 0 0 0 0 0 0 0 0 0 0.1 0"/><feBlend in2="BackgroundImageFix" result="effect1_dropShadow_9_4"/><feBlend in="SourceGraphic" in2="effect1_dropShadow_9_4" result="shape"/></filter><clipPath id="a"><rect width="600" height="600" fill="#fff" rx="16"/></clipPath></defs></svg>