<svg xmlns="http://www.w3.org/2000/svg" width="483" height="420" fill="none"><path fill="#A08CFB" d="M207 20c0-11.046 8.954-20 20-20h30c11.046 0 20 8.954 20 20v370c0 11.046-8.954 20-20 20h-30c-11.046 0-20-8.954-20-20V20Z" opacity=".1"/><rect width="18" height="106" x="21" y="245" fill="url(#a)" rx="4"/><rect width="18" height="76" y="275" fill="url(#b)" opacity=".4" rx="4"/><rect width="18" height="242" x="243" y="109" fill="url(#c)" rx="4"/><rect width="18" height="174" x="222" y="177" fill="url(#d)" opacity=".4" rx="4"/><rect width="18" height="198" x="95" y="153" fill="url(#e)" rx="4"/><rect width="18" height="142" x="74" y="209" fill="url(#f)" opacity=".4" rx="4"/><rect width="18" height="76" x="317" y="275" fill="url(#g)" rx="4"/><rect width="18" height="55" x="296" y="296" fill="url(#h)" opacity=".4" rx="4"/><rect width="18" height="302" x="169" y="49" fill="url(#i)" rx="4"/><rect width="18" height="217" x="148" y="134" fill="url(#j)" opacity=".4" rx="4"/><rect width="18" height="294" x="391" y="57" fill="url(#k)" rx="4"/><rect width="18" height="211" x="370" y="140" fill="url(#l)" opacity=".4" rx="4"/><rect width="18" height="207" x="465" y="144" fill="url(#m)" rx="4"/><rect width="18" height="149" x="444" y="202" fill="url(#n)" opacity=".4" rx="4"/><path fill="#454459" d="M8.684 382h1.195v-6.24h.04l2.55 6.24h.972l2.55-6.24h.04V382h1.196v-8.455h-1.512l-2.742 6.75h-.036l-2.736-6.75H8.684V382Zm12.597.123c1.764 0 2.924-1.219 2.924-3.205v-.012c0-1.974-1.172-3.187-2.93-3.187-1.752 0-2.918 1.219-2.918 3.187v.012c0 1.98 1.155 3.205 2.924 3.205Zm.006-1.061c-.99 0-1.635-.779-1.635-2.144v-.012c0-1.347.65-2.127 1.623-2.127.99 0 1.635.78 1.635 2.127v.012c0 1.359-.633 2.144-1.623 2.144Zm3.897.938h1.265v-3.592c0-.961.574-1.605 1.465-1.605.879 0 1.313.521 1.313 1.447V382h1.271v-3.99c0-1.418-.78-2.291-2.133-2.291-.931 0-1.564.422-1.886 1.049h-.03v-.932h-1.265V382Zm284.603 0h1.313v-3.539h3.632v-1.107H311.1v-2.678h3.966v-1.131h-5.279V382Zm6.27 0h1.265v-3.674c0-.92.504-1.453 1.319-1.453.246 0 .468.029.568.07v-1.177c-.1-.018-.258-.047-.439-.047-.704 0-1.219.451-1.418 1.172h-.03v-1.055h-1.265V382Zm4.623-7.113a.729.729 0 1 0 0-1.459.735.735 0 0 0-.739.732c0 .399.329.727.739.727Zm-.633 7.113h1.265v-6.164h-1.265V382Zm-233.58 0h1.312v-7.324h2.584v-1.131h-6.486v1.131h2.59V382Zm5.789.123c.937 0 1.564-.428 1.887-1.049h.029V382h1.271v-6.164h-1.271v3.598c0 .961-.574 1.599-1.465 1.599-.879 0-1.313-.515-1.313-1.447v-3.75H90.13v3.996c0 1.418.773 2.291 2.127 2.291Zm7.072 0c1.494 0 2.443-.891 2.643-1.869l.011-.065h-1.201l-.017.047c-.159.463-.657.85-1.407.85-1.007 0-1.646-.68-1.67-1.846h4.366v-.428c0-1.851-1.061-3.093-2.79-3.093-1.728 0-2.841 1.289-2.841 3.217v.005c0 1.946 1.096 3.182 2.906 3.182Zm-.059-5.367c.827 0 1.424.521 1.53 1.588h-3.094c.111-1.032.744-1.588 1.564-1.588ZM157.648 382h1.26l1.822-6.375h.03l1.816 6.375h1.26l2.285-8.455h-1.365l-1.576 6.627h-.03l-1.787-6.627h-1.242l-1.787 6.627h-.023l-1.577-6.627h-1.365l2.279 8.455Zm11.327.123c1.494 0 2.443-.891 2.642-1.869l.012-.065h-1.201l-.018.047c-.158.463-.656.85-1.406.85-1.008 0-1.647-.68-1.67-1.846h4.365v-.428c0-1.851-1.06-3.093-2.789-3.093-1.728 0-2.842 1.289-2.842 3.217v.005c0 1.946 1.096 3.182 2.907 3.182Zm-.059-5.367c.826 0 1.424.521 1.529 1.588h-3.093c.111-1.032.744-1.588 1.564-1.588Zm6.07 5.367c.885 0 1.565-.445 1.934-1.166h.023V382h1.272v-8.455h-1.272v3.34h-.023c-.369-.727-1.072-1.166-1.945-1.166-1.547 0-2.567 1.23-2.567 3.193v.006c0 1.963 1.008 3.205 2.578 3.205Zm.334-1.09c-1.002 0-1.617-.803-1.617-2.115v-.006c0-1.301.621-2.109 1.617-2.109.95 0 1.629.832 1.629 2.109v.006c0 1.283-.674 2.115-1.629 2.115Zm209.159 1.108c2.003 0 3.222-.979 3.222-2.52v-.006c0-1.306-.75-2.015-2.496-2.385l-.926-.193c-1.054-.228-1.535-.615-1.535-1.248v-.006c0-.738.668-1.236 1.717-1.242 1.002 0 1.682.475 1.799 1.26l.006.082h1.277l-.006-.1c-.088-1.418-1.295-2.379-3.058-2.379-1.788 0-3.059.991-3.065 2.432v.006c0 1.254.803 2.015 2.461 2.367l.92.193c1.119.246 1.582.616 1.582 1.295v.006c0 .791-.715 1.301-1.846 1.301-1.131 0-1.91-.486-2.027-1.266l-.012-.076h-1.277l.006.088c.105 1.488 1.359 2.391 3.258 2.391Zm6.064-.03c.814 0 1.529-.422 1.887-1.084h.023V382h1.272v-4.248c0-1.236-.955-2.033-2.461-2.033-1.518 0-2.438.814-2.526 1.875l-.006.064h1.196l.011-.053c.106-.492.557-.837 1.29-.837.785 0 1.224.41 1.224 1.089v.463l-1.676.1c-1.459.088-2.291.744-2.291 1.816v.012c0 1.107.826 1.863 2.057 1.863Zm-.779-1.892v-.012c0-.521.422-.855 1.183-.902l1.506-.094v.48c0 .803-.674 1.407-1.564 1.407-.68 0-1.125-.34-1.125-.879Zm7.353 1.904c.258 0 .498-.029.645-.053v-.978a2.609 2.609 0 0 1-.34.023c-.533 0-.815-.187-.815-.814v-3.457h1.155v-1.008h-1.155v-1.606h-1.295v1.606h-.884v1.008h.884v3.533c0 1.23.586 1.746 1.805 1.746Z" opacity=".5"/><path fill="#454459" d="M233.982 382h1.506v-7.184h2.526v-1.271h-6.563v1.271h2.531V382Zm4.963 0h1.459v-3.58c0-.902.539-1.529 1.366-1.529.837 0 1.318.574 1.318 1.529V382h1.459v-3.867c0-1.5-.856-2.473-2.192-2.473-.931 0-1.593.428-1.916 1.172h-.035v-3.287h-1.459V382Zm8.895.123c.937 0 1.576-.434 1.898-1.096h.03V382h1.459v-6.211h-1.459v3.598c0 .902-.534 1.506-1.372 1.506-.832 0-1.242-.498-1.242-1.377v-3.727h-1.459v4.014c0 1.441.78 2.32 2.145 2.32Z"/><path fill="#454459" d="M456.479 382.141c2.003 0 3.222-.979 3.222-2.52v-.006c0-1.306-.75-2.015-2.496-2.385l-.926-.193c-1.054-.228-1.535-.615-1.535-1.248v-.006c0-.738.668-1.236 1.717-1.242 1.002 0 1.682.475 1.799 1.26l.006.082h1.277l-.006-.1c-.088-1.418-1.295-2.379-3.058-2.379-1.788 0-3.059.991-3.065 2.432v.006c0 1.254.803 2.015 2.461 2.367l.92.193c1.119.246 1.582.616 1.582 1.295v.006c0 .791-.715 1.301-1.846 1.301-1.131 0-1.91-.486-2.027-1.266l-.012-.076h-1.277l.006.088c.105 1.488 1.359 2.391 3.258 2.391Zm6.351-.018c.938 0 1.565-.428 1.887-1.049h.029V382h1.272v-6.164h-1.272v3.598c0 .961-.574 1.599-1.465 1.599-.879 0-1.312-.515-1.312-1.447v-3.75h-1.266v3.996c0 1.418.774 2.291 2.127 2.291Zm4.441-.123h1.266v-3.592c0-.961.574-1.605 1.465-1.605.879 0 1.312.521 1.312 1.447V382h1.272v-3.99c0-1.418-.779-2.291-2.133-2.291-.932 0-1.564.422-1.887 1.049h-.029v-.932h-1.266V382Z" opacity=".5"/><circle cx="242" cy="410" r="8" fill="url(#o)" stroke="#fff" stroke-width="4"/><defs><linearGradient id="a" x1="30" x2="30" y1="245" y2="351" gradientUnits="userSpaceOnUse"><stop stop-color="#B09FFF"/><stop offset="1" stop-color="#8D79F6"/></linearGradient><linearGradient id="b" x1="9" x2="9" y1="275" y2="351" gradientUnits="userSpaceOnUse"><stop stop-color="#B09FFF"/><stop offset="1" stop-color="#8D79F6"/></linearGradient><linearGradient id="c" x1="252" x2="252" y1="109" y2="351" gradientUnits="userSpaceOnUse"><stop stop-color="#B09FFF"/><stop offset="1" stop-color="#8D79F6"/></linearGradient><linearGradient id="d" x1="231" x2="231" y1="177" y2="351" gradientUnits="userSpaceOnUse"><stop stop-color="#B09FFF"/><stop offset="1" stop-color="#8D79F6"/></linearGradient><linearGradient id="e" x1="104" x2="104" y1="153" y2="351" gradientUnits="userSpaceOnUse"><stop stop-color="#B09FFF"/><stop offset="1" stop-color="#8D79F6"/></linearGradient><linearGradient id="f" x1="83" x2="83" y1="209" y2="351" gradientUnits="userSpaceOnUse"><stop stop-color="#B09FFF"/><stop offset="1" stop-color="#8D79F6"/></linearGradient><linearGradient id="g" x1="326" x2="326" y1="275" y2="351" gradientUnits="userSpaceOnUse"><stop stop-color="#B09FFF"/><stop offset="1" stop-color="#8D79F6"/></linearGradient><linearGradient id="h" x1="305" x2="305" y1="296" y2="351" gradientUnits="userSpaceOnUse"><stop stop-color="#B09FFF"/><stop offset="1" stop-color="#8D79F6"/></linearGradient><linearGradient id="i" x1="178" x2="178" y1="49" y2="351" gradientUnits="userSpaceOnUse"><stop stop-color="#B09FFF"/><stop offset="1" stop-color="#8D79F6"/></linearGradient><linearGradient id="j" x1="157" x2="157" y1="134" y2="351" gradientUnits="userSpaceOnUse"><stop stop-color="#B09FFF"/><stop offset="1" stop-color="#8D79F6"/></linearGradient><linearGradient id="k" x1="400" x2="400" y1="57" y2="351" gradientUnits="userSpaceOnUse"><stop stop-color="#B09FFF"/><stop offset="1" stop-color="#8D79F6"/></linearGradient><linearGradient id="l" x1="379" x2="379" y1="140" y2="351" gradientUnits="userSpaceOnUse"><stop stop-color="#B09FFF"/><stop offset="1" stop-color="#8D79F6"/></linearGradient><linearGradient id="m" x1="474" x2="474" y1="144" y2="351" gradientUnits="userSpaceOnUse"><stop stop-color="#B09FFF"/><stop offset="1" stop-color="#8D79F6"/></linearGradient><linearGradient id="n" x1="453" x2="453" y1="202" y2="351" gradientUnits="userSpaceOnUse"><stop stop-color="#B09FFF"/><stop offset="1" stop-color="#8D79F6"/></linearGradient><linearGradient id="o" x1="242" x2="242" y1="400" y2="420" gradientUnits="userSpaceOnUse"><stop stop-color="#B09FFF"/><stop offset="1" stop-color="#8D79F6"/></linearGradient></defs></svg>